<svg height="512" viewBox="0 0 512 512" width="512" xmlns="http://www.w3.org/2000/svg"><g isolation="isolate"><g id="Layer_1" data-name="Layer 1"><g fill="#bac3ce"><path d="m271.85 99.72s.78-29.71-16.21-39.21c0 0 31.24 12.16 46.74 42.69z"/><path d="m241.47 96.1s-3.32-34.1-35.92-43.29c0 0 56.45 3.82 69.15 45.85z"/><path d="m242.77 95.79s-3.58-22-34.75-11.31c0 0 13.14 2.13 14.23 13z"/></g><path d="m208 84.48s21.65-2.34 20 23.35l-5-1.64s2.16-15.94-15-21.71z" fill="#acb6c1"/><path d="m205.55 52.81s43.62 9.7 34.66 36.92c0 0-7.1-24.73-34.66-36.92z" fill="#acb6c1"/><path d="m255.64 60.51s23.95 11 15.58 29.47c0 .02-2.51-19.14-15.58-29.47z" fill="#acb6c1"/><path d="m470.34 321.41c-49.54 21.42-115.57 21.72-170.66-9.69 3.46-7.28 6.88-14.51 10.22-21.8q2.82-6.14 5.55-12.38c45.63 20.29 99.33 19.31 140.36 2.6 3.42-1.39 9.05.76 13.5 5.11a22.56 22.56 0 0 1 6.08 10.09c0 .13.25.62.3.74 3.72 9.69.15 22.92-5.35 25.33z" fill="#bac2cc"/><path d="m469.31 285.25a33.19 33.19 0 0 1 -7.81 4.93c-42.67 20.52-104.23 20.83-151.6-.26q2.82-6.14 5.55-12.38c45.63 20.29 99.33 19.31 140.36 2.6 3.42-1.39 9.05.76 13.5 5.11z" fill="#c5ccd3"/><path d="m39.38 315.91c48.91 22.81 114.91 25 170.87-4.85-3.25-7.38-6.47-14.7-9.6-22.08q-2.64-6.21-5.2-12.53c-46.18 19-99.83 16.48-140.38-1.38-3.38-1.49-9.06.51-13.63 4.73a22.44 22.44 0 0 0 -6.37 9.91 7.71 7.71 0 0 1 -.32.73c-3.99 9.56-.75 22.94 4.63 25.47z" fill="#adb4be"/><path d="m41.44 279.8a33.36 33.36 0 0 0 7.67 5.14c42.07 21.72 103.6 23.78 151.54 4q-2.64-6.21-5.2-12.53c-46.18 19-99.83 16.48-140.38-1.38-3.38-1.45-9.07.55-13.63 4.77z" fill="#bac2cc"/><path d="m345.39 423.32c0-13.32-13.82-133.32-26.67-151.32a97.12 97.12 0 0 0 -6.91-8.61c-13.41-14.93-30.78-24.73-50-26.83a67.44 67.44 0 0 0 -7.82-.44c-22 0-42.14 10.07-57.28 26.63q-3.16 3.46-6 7.28c-13.73 18.3-28.11 140-28.11 153.34a77.74 77.74 0 0 0 8.79 35.87h165.21a77.86 77.86 0 0 0 8.79-35.92z" fill="#adb4be"/><path d="m254 459.19h82.6a77.86 77.86 0 0 0 8.79-35.87c0-13.32-13.82-133.32-26.67-151.32a97.12 97.12 0 0 0 -6.91-8.61c-13.41-14.93-30.78-24.73-50-26.83a67.44 67.44 0 0 0 -7.82-.44" fill="#bac2cc"/><path d="m321.33 439.7 6.47 6.67c.42-6.05-5.63-25.05-5.63-25.05l5.63 5.43c.2-6.36-11.12-31.32-11.47-31.86l7.29 3.75c-2.08-5.43-16.69-30.65-16.69-30.65h6.31c-4.12-7.1-19.66-20.26-19.66-20.26h6.7c-.69-2.54-5.4-6.31-10.07-9.56-5-3.46-9.94-6.27-9.94-6.27l5.63-1.11c-1-10.85-13.36-19.56-13.36-19.56l9.05 3.42c.22-4.31-7.59-15.73-7.59-15.73l7.73 6.48c1-6.69-5.22-16.7-5.22-16.7l7.3 4.37c0-4.82-8.05-13.18-8.05-13.18h6.11c-1.28-5.8-18.35-17.38-18.35-17.38l9.34 1.92-13.53-9.24-2.16-1.48-.08-.06h-6.19l-.1.08-15.67 10.7 9.33-1.92s-17.05 11.58-18.34 17.38h6.11s-8 8.36-8 13.18l7.3-4.37s-6.26 10-5.22 16.7l7.7-6.45c-.43.59-7.45 10.22-7.25 14.39l11.63-2.58s-15.08 9.46-16.25 20l5.63 1.11s-2.87 1.64-6.44 3.93c-5.53 3.57-12.76 8.73-13.63 11.92h6.71s-15.59 13.17-19.71 20.28h6.3s-14.6 25.22-16.7 30.65l7.29-3.75c-.35.54-11.67 25.5-11.46 31.86l5.64-5.43s-6.06 19-5.64 25.05l6.47-6.67s-1.62 10.84-.9 19.49h136.52c.72-8.66-.89-19.5-.89-19.5z" fill="#f1f2f0"/><path d="m185.71 459.19c-.72-8.65.9-19.49.9-19.49l-6.47 6.67c-.42-6.05 5.64-25.05 5.64-25.05l-5.64 5.43c-.21-6.36 11.11-31.32 11.46-31.86l-7.29 3.75c2.1-5.43 16.69-30.64 16.69-30.64h-6.3c4.12-7.1 19.67-20.26 19.67-20.26h-6.71c.87-3.19 8.1-8.35 13.63-11.92 3.57-2.29 6.44-3.93 6.44-3.93l-5.63-1.11c1.17-10.57 16.25-20 16.25-20l-11.63 2.58c-.2-4.17 6.82-13.8 7.25-14.39l-7.7 6.45c-1-6.69 5.22-16.7 5.22-16.7l-7.3 4.37c0-4.82 8-13.18 8-13.18h-6.11c1.29-5.8 18.34-17.38 18.34-17.38l-9.33 1.92 15.67-10.7c1-.05 2.12-.08 3.18-.08s2.09 0 3.14.06 2.07.12 3.1.2c-.32.42-.63.84-.94 1.28-9.26 12.89-18 34.42-10.85 66.4v.22a59.82 59.82 0 0 1 -5.87 42.28c-1.52 2.89-3.22 16.81-4.82 20.39-7.3 16.34-13.28 46.61-10 74.69" fill="#8792ae" opacity=".15" mix-blend-mode="multiply"/><ellipse cx="251.22" cy="287.41" opacity=".11" rx="99.72" ry="34.37"/><path d="m309.18 116.82s31.15-75.66 99.13-56.37c0 0 20.67 74.69-29.6 109.45-17.8 12.31-69.53-53.08-69.53-53.08z" fill="#bac3ce"/><path d="m392.61 79s-27.32 3.13-38.53 38.16c-6.35 19.84-13.55 27.46-13.55 27.46s36.41 8.47 35.14 0-12.28-8.89-5.92-14.82 24.46-27.28 12.7-29.21c-15.88-2.59 10.16-21.59 10.16-21.59z" fill="#8792ae" opacity=".47" mix-blend-mode="multiply"/><path d="m197.23 116.82s-31.15-75.66-99.12-56.37c0 0-20.67 74.69 29.59 109.45 17.8 12.31 69.53-53.08 69.53-53.08z" fill="#adb4be"/><path d="m114.3 79.75s27.32 3.13 38.53 38.16c6.35 19.85 13.54 27.47 13.54 27.47s-36.41 8.46-35.14 0 12.28-8.9 5.93-14.82-24.47-27.29-12.7-29.22c15.88-2.6-10.16-21.59-10.16-21.59z" fill="#8792ae" opacity=".47" mix-blend-mode="multiply"/><path d="m429.76 217.84c-9.46-.72-18-5.3-25.46-11.64a75.32 75.32 0 0 0 .43-8c0-1.42 0-2.85-.11-4.26-1.28-22.09-12.42-42.42-30.42-58.91-27.45-25.14-70.87-41.37-119.75-41.37-67.92 0-125.31 31.35-143.92 74.39a76.73 76.73 0 0 0 -6 23.4c-.19 2.22-.29 4.48-.29 6.75 0 1.8.07 3.59.2 5.36 0 .61.09 1.23.16 1.85-7 8.25-24.46 12-26.22 12.39h-.15s10 19.08 29.27 24.38l-19.13-.3c.6.68 19.59 21.86 41.26 24.65.45.06.9.11 1.36.15 0 0-22.38.74-27.5-.18 19.89 11.65 43.61 42 110.73 32.57l-.19-.21c12.87 2.49 27.67 10.81 41.68 10.81 13.58 0 25.51-8.24 38-10.6a175.2 175.2 0 0 0 24.29 1.86c49.05 0 69.22-24.24 86.51-34.36-5.13.92-27.5.18-27.5.18.46 0 .9-.09 1.36-.15 21.67-2.79 40.66-24 41.26-24.65l-19.13.3c19.27-5.33 29.26-24.41 29.26-24.41z" fill="#bac2cc"/><path d="m269.42 299.14c-67.12 9.41-90.84-20.92-110.73-32.57 5.12.92 27.5.18 27.5.18-.46 0-.91-.09-1.36-.15-21.67-2.79-40.66-24-41.26-24.65l19.13.3c-19.27-5.3-29.27-24.38-29.27-24.38h.15c1.76-.36 19.28-4.14 26.22-12.39-.06-.62-.12-1.24-.16-1.85-.13-1.77-.2-3.56-.2-5.36 0-2.27.1-4.53.3-6.75a76.43 76.43 0 0 1 6-23.4 554.51 554.51 0 0 1 35.26-67.63s-72 16.86-90.47 67.58c-2.78 7.66-5.3 15.31-6 23.4-.19 2.22-.29 4.48-.29 6.75 0 1.8.07 3.59.2 5.36 0 .61.09 1.23.16 1.85-7 8.25-24.46 12-26.22 12.39h-.15s10 19.08 29.27 24.38l-19.13-.3c.6.68 19.59 21.86 41.26 24.65.45.06.9.11 1.36.15 0 0-22.38.74-27.5-.18 19.89 11.65 43.61 42 110.73 32.57l-.19-.21c12.87 2.49 27.67 10.81 41.68 10.81 9.33 0 17.89-3.9 26.39-7.09a97.16 97.16 0 0 0 -12.86-3.72z" fill="#adb4be"/><path d="m321.69 124.53c-26.26-16.24-53.39 12-53.39 12s-5.7-17.06-15.62-17.06-15.77 17.06-15.77 17.06-27.12-28.27-53.39-12-44.76 60.89-77.85 70.36l.18.09c.79 2.74 22.76 76 105.84 47.67 14.42-4.91 35.2 3.5 40.92 3.5h.15c5.72 0 26.5-8.41 40.91-3.5 84.66 28.83 105.87-47.76 105.87-47.76-33.08-9.47-51.54-54.11-77.85-70.36z" fill="#606b7d"/><g opacity=".61"><path d="m293.67 231.63c-14.41-4.91-35.19 3.5-40.91 3.5h-.15c-5.72 0-26.5-8.41-40.92-3.5-65.47 22.3-104.69-37.12-106-36.74l.18.09c.79 2.74 22.76 76 105.84 47.67 14.42-4.91 35.2 3.5 40.92 3.5h.15c5.72 0 26.5-8.41 40.91-3.5 84.66 28.83 105.87-47.76 105.87-47.76-1.3-.37-40.48 59.02-105.89 36.74z" fill="#586372"/></g><path d="m262 186.26a43.33 43.33 0 1 1 43.33 43.32 43.33 43.33 0 0 1 -43.33-43.32z" fill="#fff"/><path d="m348.61 186.22a43.37 43.37 0 0 1 -86.73 0 40.81 40.81 0 0 1 .2-4.16 43.36 43.36 0 0 0 86.33 0 40.81 40.81 0 0 1 .2 4.16z" fill="#f2f2f2"/><path d="m242 186.26a43.33 43.33 0 1 0 -43.33 43.32 43.33 43.33 0 0 0 43.33-43.32z" fill="#fff"/><path d="m155.37 186.22a43.37 43.37 0 0 0 86.74 0 40.8 40.8 0 0 0 -.21-4.16 43.35 43.35 0 0 1 -86.32 0 38.12 38.12 0 0 0 -.21 4.16z" fill="#f2f2f2"/><path d="m289.09 243.4s0 32.79-19 46.33a31.77 31.77 0 0 1 -19.09 5.76c-8.19-.05-14.66-3.73-19.78-9.13-14.15-14.93-17.86-43-17.86-43z" fill="#822244"/><ellipse cx="251.22" cy="238.57" fill="#ccd3db" rx="39.91" ry="27.95"/><ellipse cx="251.22" cy="234.71" fill="#425066" rx="21.07" ry="14.94"/><path d="m272.29 234.7a10.29 10.29 0 0 1 -.32 2.6c-1.74-7-10.36-12.34-20.75-12.34s-19 5.32-20.74 12.34a10.29 10.29 0 0 1 -.32-2.6c0-8.23 9.43-14.94 21.06-14.94s21.07 6.71 21.07 14.94z" fill="#4a5a70"/><path d="m270.11 289.73a31.77 31.77 0 0 1 -19.11 5.76c-8.19-.05-14.66-3.73-19.78-9.13a20.44 20.44 0 0 1 38.89 3.37z" fill="#dd3c7e"/><path d="m342 143.29s-42.89-10.6-45.7-14.89 8.13-16.79 16.87-14.39 32 17 31.88 23.31-3.05 5.97-3.05 5.97z" fill="#303947"/><path d="m343.89 142.23c0-.23 0-.49 0-.76.09-6.32-23.15-20.91-31.88-23.31-6.14-1.68-13.38 4-16.16 9-.57-5 9.3-15.35 17.3-13.16 8.73 2.4 32 17 31.88 23.31-.03 2.62-.53 4.09-1.14 4.92z" fill="#3b4759"/><path d="m161.19 142s43.36-8.41 46.39-12.56-7.27-17.18-16.11-15.23-32.79 15.36-33 21.67 2.72 6.12 2.72 6.12z" fill="#303947"/><path d="m159.37 140.81c0-.24 0-.5 0-.76.23-6.32 24.18-19.72 33-21.67 6.21-1.37 13.15 4.66 15.67 9.81.83-5-8.51-15.8-16.6-14-8.85 2-32.8 15.36-33 21.66-.09 2.6.36 4.15.93 4.96z" fill="#3b4759"/><path d="m42.87 316.19c5.15-2.73 10-8.73 12.65-16.51s2.53-15.48.13-20.8-5.89-18.61-26.85-19.3c-6.78-.22-10.92 4.17-11.06 8.41-.06 1.94 1.87 6.75 3.8 9.07-2.91.4-7 2-8.18 3.58-2.62 3.37-1.82 7.32 1.21 11.63a16 16 0 0 0 2.22 2.52l-1.67.44a15.58 15.58 0 0 0 -7.65 4.59c-2.5 3.44-1.95 7.78 2.37 12.35 13.72 14.48 33.03 4.02 33.03 4.02z" fill="#606b7d"/><path d="m21.54 277.06s11.08 8.31 21.83 7.53c0 0-21.46-6.4-25.33-18.37-.04 0-2.58 3.59 3.5 10.84z" fill="#8792ae" opacity=".47" mix-blend-mode="multiply"/><path d="m16.71 294.73s11.07 8.31 21.83 7.53c0 0-22.72-6.69-26.6-18.67 0 0-1.6 5.41 4.77 11.14z" fill="#8792ae" opacity=".47" mix-blend-mode="multiply"/><path d="m450.47 286c-1.25 5.69.2 13.26 4.41 20.33s10.17 11.94 15.77 13.55 18 7.55 32.09-8c4.56-5 3.89-11 .74-13.88-1.43-1.3-6.35-2.93-9.37-3 1.59-2.48 3-6.63 2.57-8.56-.88-4.17-4.41-6.11-9.65-6.59a15 15 0 0 0 -3.36.06l.74-1.56a15.42 15.42 0 0 0 1.45-8.81c-1-4.12-4.67-6.52-10.95-6.18-19.91 1.13-24.44 22.64-24.44 22.64z" fill="#606b7d"/><path d="m494.11 295s-13.5 3.07-19.86 11.78c0 0 18.76-12.23 30.4-7.43 0 .03-1.08-4.26-10.54-4.35z" fill="#8792ae" opacity=".47" mix-blend-mode="multiply"/><path d="m483.77 279.92s-13.5 3.07-19.86 11.77c0 0 19.79-13 31.43-8.21 0 0-3.1-4.72-11.57-3.56z" fill="#8792ae" opacity=".47" mix-blend-mode="multiply"/><path d="m279.05 191c0-9.85 6.18-17.83 13.8-17.83s13.8 8 13.8 17.83" fill="none" stroke="#35221d" stroke-linecap="round" stroke-miterlimit="10" stroke-width="9"/><path d="m195.71 191c0-9.85 6.18-17.83 13.81-17.83s13.8 8 13.8 17.83" fill="none" stroke="#35221d" stroke-linecap="round" stroke-miterlimit="10" stroke-width="9"/></g></g></svg>