<svg height="512" viewBox="0 0 512 512" width="512" xmlns="http://www.w3.org/2000/svg"><g isolation="isolate"><g id="Layer_1" data-name="Layer 1"><g id="jacuzzi"><ellipse cx="425.23" cy="339.78" fill="#2a1d30" rx="19.7" ry="23.96" transform="matrix(.48 -.877 .877 .48 -76.89 549.9)"/><path d="m420.45 332.92a9.54 9.54 0 0 0 10.44 5.16 6 6 0 0 0 4.11-8.68 9.54 9.54 0 0 0 -10.44-5.16 6 6 0 0 0 -4.11 8.68z" fill="#5d436e" opacity=".5"/><ellipse cx="74.74" cy="339.78" fill="#2a1d30" rx="23.96" ry="19.7" transform="matrix(.877 -.48 .48 .877 -153.83 77.5)"/><path d="m79.52 332.92a9.54 9.54 0 0 1 -10.44 5.16 6 6 0 0 1 -4.08-8.68 9.54 9.54 0 0 1 10.44-5.16 6 6 0 0 1 4.08 8.68z" fill="#5d436e" opacity=".5"/><path d="m422 376.14c0 69.58-77.74 116.61-173.63 116.61s-173.63-47-173.63-116.61 77.74-99.24 173.63-99.24 173.63 29.66 173.63 99.24z" fill="#2a1d30"/><path d="m75.19 367.23c31.69 27.82 82 44.26 138.72 44.26 89 0 162.29-40.49 172.42-101.9-31.73-22.48-81.72-32.69-138-32.69-91.65 0-166.74 27.1-173.14 90.33z" fill="#543966" opacity=".5"/><path d="m215.26 457.23c102.8 0 186.13-50.42 186.13-125a95.28 95.28 0 0 0 -.53-10.12c-29.46-31.24-86.7-45.2-152.49-45.2-95.89 0-173.63 29.66-173.63 99.24a89.63 89.63 0 0 0 15.7 50.74c33.02 19.33 76.79 30.34 124.82 30.34z" fill="#543966" opacity=".5"/><ellipse cx="248.37" cy="289.05" fill="#2a1d30" rx="157.89" ry="37.55"/><path d="m406.26 283.93c0 17.91-70.69 35.94-157.89 35.94s-157.89-18-157.89-35.94 70.69-32.43 157.89-32.43 157.89 14.5 157.89 32.43z" fill="#543966"/><ellipse cx="248.37" cy="283.93" fill="#2a1d30" rx="125.58" ry="25.79"/><path d="m370.66 289.79c-7.56 6.68-27.73 12.36-55.08 15.93-5.19.67-10.64 1.28-16.3 1.79-14.94 1.37-31.43 2.15-48.77 2.21h-2.14q-6.37 0-12.58-.13c-12-.24-23.5-.83-34.26-1.72-5.57-.46-11-1-16.1-1.62-29.52-3.52-51.4-9.44-59.34-16.46 8.35-7.39 32.13-13.56 64-17 9.53-1 19.79-1.82 30.57-2.31 8.61-.4 17.56-.62 26.75-.63h3.1c10.4 0 20.48.33 30.11.86 10.84.59 21.1 1.47 30.58 2.6 29.57 3.52 51.5 9.45 59.46 16.48z" fill="#37d320"/><path d="m264.37 274.51c-43.2 0-80.51 5.24-98.2 12.84-5 2.14-5 7.39 0 9.53 17.69 7.6 55 12.84 98.2 12.84 51.75 0 95.05-7.52 106.28-17.61-11.23-10.11-54.53-17.6-106.28-17.6z" fill="#37d320" opacity=".5" mix-blend-mode="multiply"/><path d="m345.07 288.51c-17.3-6.32-55.15-10.7-99.09-10.7-2.33 0-4.63 0-6.92 0 41 .43 75.82 4.67 92.21 10.66 4.51 1.65 4.51 5.42 0 7.07-16.39 6-51.23 10.23-92.21 10.66h6.92c43.94 0 81.79-4.38 99.09-10.7 4.51-1.57 4.51-5.34 0-6.99z" fill="#37d320"/><g fill="#5d436e"><ellipse cx="126.1" cy="339.78" rx="18.17" ry="13.19"/><path d="m113.86 358.34c0 3-3.32 5.38-7.41 5.38s-7.45-2.41-7.45-5.38 3.32-5.37 7.41-5.37 7.45 2.4 7.45 5.37z"/><ellipse cx="110.92" cy="280.41" rx="11.87" ry="3.52"/></g><path d="m352.44 464.44-4.95 34.31c-.92 6.4-11.27 9.49-18.13 5.41l-36.57-21.75z" fill="#2a1d30"/><path d="m144.3 464.44 4.95 34.31c.92 6.4 11.27 9.49 18.13 5.41l36.62-21.75z" fill="#2a1d30"/><circle cx="387.85" cy="129.37" fill="#37d320" r="50.99"/><path d="m408.24 88.45a45.75 45.75 0 0 1 -57.68 67.11 45.78 45.78 0 1 0 57.68-67.11z" fill="#37d320" opacity=".5" mix-blend-mode="multiply"/><circle cx="375.34" cy="105.55" fill="#fff" opacity=".3" r="18.67" transform="matrix(.787 -.618 .618 .787 14.94 254.32)"/><path d="m362.86 133.62a9 9 0 1 1 -9-9 9 9 0 0 1 9 9z" fill="#fff" opacity=".3"/><g id="wave"><g fill="#bac3ce"><path d="m265.27 47.7s.69-26.42-14.41-34.86c0 0 27.77 10.81 41.56 38z"/><path d="m238.26 44.48s-2.95-30.28-31.94-38.48c0 0 50.19 3.39 61.49 40.76z"/><path d="m239.42 44.21s-3.19-19.57-30.9-10.05c0 0 11.69 1.89 12.65 11.55z"/></g><path d="m208.52 34.16s19.25-2.09 17.81 20.76l-4.45-1.46s1.88-14.18-13.36-19.3z" fill="#acb6c1"/><path d="m206.32 6s38.79 8.62 30.82 32.82c0 0-6.31-22.01-30.82-32.82z" fill="#acb6c1"/><path d="m250.86 12.84s21.29 9.77 13.85 26.21c0 0-2.23-17.05-13.85-26.21z" fill="#acb6c1"/><path d="m434.1 283.5c-47.8 4.27-103.63-13.89-141.38-55.76 4.95-5.19 9.86-10.33 14.71-15.56q4.1-4.4 8.14-8.9c32.86 29.84 78.47 44 117.77 41.33 3.28-.22 7.42 3.17 10 8.08a20 20 0 0 1 2.32 10.22c0 .11 0 .59.05.7.41 9.22-6.3 19.39-11.61 19.89z" fill="#bac2cc"/><path d="m443.31 252.69a29.61 29.61 0 0 1 -8 2c-41.74 5.42-93.81-11.47-127.91-42.49q4.1-4.4 8.14-8.9c32.86 29.84 78.47 44 117.77 41.33 3.31-.24 7.45 3.15 10 8.06z" fill="#c5ccd3"/><path d="m75.76 276.72c47.83 3.89 103.51-14.7 140.94-56.87-5-5.14-9.94-10.25-14.83-15.44q-4.12-4.36-8.21-8.84c-32.63 30.1-78.12 44.61-117.45 42.26-3.27-.2-7.39 3.22-9.9 8.15a19.91 19.91 0 0 0 -2.24 10.23v.71c-.41 9.22 6.38 19.37 11.69 19.8z" fill="#adb4be"/><path d="m66.31 246a30 30 0 0 0 8 1.92c41.79 5.1 93.72-12.21 127.58-43.49q-4.12-4.36-8.21-8.84c-32.63 30.1-78.12 44.61-117.45 42.26-3.29-.22-7.41 3.2-9.92 8.15z" fill="#bac2cc"/><path d="m327.78 304.9c-6.25.81-12.82 1.54-19.64 2.16-18 1.65-37.86 2.59-58.76 2.66h-2.57q-7.68 0-15.16-.16c-14.45-.28-28.3-1-41.27-2.07-6.72-.56-13.2-1.21-19.39-1.95 1.44-12 3.37-26.18 5.61-40.29 4.64-29.36 10.63-58.36 16.5-66.16 1.69-2.26 3.48-4.43 5.36-6.48 13.46-14.72 31.33-23.68 50.93-23.68a59.35 59.35 0 0 1 6.95.4c17.09 1.85 32.54 10.57 44.46 23.84a88.81 88.81 0 0 1 6.15 7.66c5.46 7.69 11.14 36.16 15.55 65 2.09 13.67 3.9 27.39 5.28 39.07z" fill="#adb4be"/><path d="m327.78 304.9c-6.25.81-12.82 1.54-19.64 2.16-18 1.65-37.86 2.59-58.76 2.66v-140.79a59.35 59.35 0 0 1 6.95.4c17.09 1.85 32.54 10.57 44.46 23.84a88.81 88.81 0 0 1 6.15 7.66c5.46 7.69 11.14 36.16 15.55 65 2.1 13.67 3.91 27.39 5.29 39.07z" fill="#bac2cc"/><path d="m308.14 307.06c-18 1.65-37.86 2.59-58.76 2.66h-2.57q-7.68 0-15.16-.16c-14.45-.28-28.3-1-41.27-2.07 4.42-8.34 11.91-21.26 11.91-21.26h-5.62c3.67-6.32 17.5-18 17.5-18h-6c.31-1.15 1.56-2.59 3.26-4.12.26-.23.53-.47.81-.7s.76-.62 1.15-.93c2.17-1.71 4.69-3.42 6.9-4.85 3.17-2 5.73-3.5 5.73-3.5l-5-1c1-9.41 14.45-17.82 14.45-17.82l-10.34 2.29c-.19-3.7 6.06-12.26 6.44-12.79l-6.84 5.74c-.93-5.95 4.64-14.85 4.64-14.85l-6.5 3.89c0-4.29 7.16-11.72 7.16-11.72h-5.44c1.14-5.16 16.31-15.46 16.31-15.46l-8.3 1.72 13.93-9.53.09-.07h5.46l.08.07 1.91 1.31 12 8.22-8.31-1.72s15.18 10.3 16.32 15.46h-5.38s7.16 7.43 7.16 11.72l-6.49-3.89s5.56 8.9 4.65 14.85l-6.88-5.76s6.94 10.15 6.75 14l-8-3c.33.23 11 7.89 11.87 17.39l-5 1s4.41 2.51 8.84 5.58c1.4 1 2.81 2 4.07 3 2.5 2 4.48 4 4.89 5.47h-6s13.82 11.7 17.48 18h-5.61s7.27 12.49 11.71 20.83z" fill="#f1f2f0"/><path d="m254.93 184.78c-.28.37-.56.74-.84 1.14a60.7 60.7 0 0 0 -4.7 7.69c-6 11.68-10 28.51-4.94 51.34a1.46 1.46 0 0 0 .05.2 54.66 54.66 0 0 1 1.15 16.55 52.08 52.08 0 0 1 -6.38 21c-1.45 2.61-2.94 15-4.36 18.16a86.45 86.45 0 0 0 -3.26 8.66c-14.45-.28-28.3-1-41.27-2.07 4.42-8.34 11.91-21.26 11.91-21.26h-5.62c3.67-6.32 17.5-18 17.5-18h-6c.31-1.15 1.56-2.59 3.26-4.12.26-.23.53-.47.81-.7s.76-.62 1.15-.93c2.17-1.71 4.69-3.42 6.9-4.85 3.17-2 5.73-3.5 5.73-3.5l-5-1c1-9.41 14.45-17.82 14.45-17.82l-10.34 2.29c-.19-3.7 6.06-12.26 6.44-12.79l-6.84 5.74c-.93-5.95 4.64-14.85 4.64-14.85l-6.5 3.89c0-4.29 7.16-11.72 7.16-11.72h-5.44c1.14-5.16 16.31-15.46 16.31-15.46l-8.3 1.72 13.93-9.53c.94 0 1.89-.07 2.83-.07.94 0 1.86 0 2.79.07s1.85.14 2.78.22z" fill="#8792ae" opacity=".15" mix-blend-mode="multiply"/><ellipse cx="246.93" cy="214.58" opacity=".11" rx="88.67" ry="30.56"/><path d="m298.46 62.91s27.7-67.28 88.13-50.12c0 0 18.38 66.41-26.31 97.31-15.82 10.95-61.82-47.19-61.82-47.19z" fill="#bac3ce"/><path d="m372.64 29.29s-24.29 2.78-34.26 33.92c-5.64 17.65-12 24.43-12 24.43s32.37 7.52 31.24 0-10.92-7.91-5.27-13.18 21.75-24.26 11.29-26c-14.15-2.29 9-19.17 9-19.17z" fill="#8792ae" opacity=".47" mix-blend-mode="multiply"/><path d="m198.93 62.91s-27.7-67.28-88.13-50.12c0 0-18.38 66.41 26.31 97.31 15.82 10.95 61.82-47.19 61.82-47.19z" fill="#adb4be"/><path d="m125.19 30s24.29 2.78 34.26 33.93c5.64 17.64 12 24.42 12 24.42s-32.37 7.53-31.24 0 10.92-7.91 5.27-13.18-21.75-24.26-11.29-26c14.15-2.34-9-19.17-9-19.17z" fill="#8792ae" opacity=".47" mix-blend-mode="multiply"/><path d="m405.67 152.73c-8.41-.65-16-4.72-22.64-10.35a64.29 64.29 0 0 0 .39-7.1c0-1.26 0-2.53-.11-3.79-1.13-19.64-11-37.72-27-52.38-24.4-22.34-63-36.77-106.46-36.77-60.39 0-111.42 27.87-128 66.13a68.11 68.11 0 0 0 -5.37 20.81c-.17 2-.27 4-.27 6 0 1.6.07 3.19.18 4.77 0 .54.09 1.09.14 1.64-6.17 7.34-21.74 10.7-23.3 11h-.14s8.89 17 26 21.67l-17-.27c.53.61 17.42 19.44 36.68 21.92.4 0 .8.1 1.21.13 0 0-19.89.66-24.45-.16 17.69 10.36 38.78 37.32 98.46 29l-.18-.19c11.45 2.22 24.61 9.61 37.06 9.61 12.08 0 22.69-7.33 33.82-9.42a156.13 156.13 0 0 0 21.54 1.59c43.61 0 61.54-21.55 76.91-30.55-4.56.82-24.45.16-24.45.16.41 0 .8-.08 1.21-.13 19.26-2.48 36.15-21.31 36.68-21.92l-17 .27c17.21-4.71 26.09-21.67 26.09-21.67z" fill="#bac2cc"/><path d="m263.11 225c-59.67 8.36-80.76-18.6-98.45-29 4.56.82 24.45.16 24.45.16-.41 0-.81-.08-1.21-.13-19.26-2.48-36.15-21.31-36.68-21.92l17 .27c-17.13-4.71-26-21.67-26-21.67h.13c1.56-.32 17.14-3.68 23.31-11-.06-.55-.1-1.1-.14-1.64-.11-1.58-.18-3.17-.18-4.77q0-3 .26-6a68.41 68.41 0 0 1 5.38-20.81 495.11 495.11 0 0 1 31.32-60.11s-64.07 15-80.46 60.09c-2.47 6.81-4.71 13.62-5.37 20.81-.17 2-.27 4-.27 6 0 1.6.07 3.19.18 4.77 0 .54.09 1.09.14 1.64-6.17 7.34-21.74 10.7-23.3 11h-.14s8.89 17 26 21.67l-17-.27c.53.61 17.42 19.44 36.68 21.92.4 0 .8.1 1.21.13 0 0-19.89.66-24.45-.16 17.69 10.36 38.78 37.32 98.46 29l-.18-.19c11.45 2.22 24.61 9.61 37.06 9.61 8.3 0 15.91-3.46 23.46-6.3a86 86 0 0 0 -11.43-3.31z" fill="#adb4be"/><path d="m309.59 69.77c-23.36-14.45-47.48 10.69-47.48 10.69s-5.06-15.17-13.88-15.17-14 15.17-14 15.17-24.12-25.14-47.47-10.69-39.8 54.13-69.22 62.55l.16.08c.7 2.44 20.24 67.54 94.11 42.38 12.82-4.37 31.29 3.11 36.38 3.11h.13c5.08 0 23.56-7.48 36.38-3.11 75.27 25.64 94.13-42.46 94.13-42.46-29.44-8.42-45.89-48.11-69.24-62.55z" fill="#606b7d"/><g opacity=".61"><path d="m284.68 165c-12.82-4.37-31.3 3.11-36.38 3.11h-.13c-5.09 0-23.56-7.48-36.38-3.11-58.21 19.82-93.09-33-94.27-32.67l.16.08c.7 2.44 20.24 67.54 94.11 42.38 12.82-4.37 31.29 3.11 36.38 3.11h.13c5.08 0 23.56-7.48 36.38-3.11 75.27 25.64 94.13-42.46 94.13-42.46-1.15-.33-35.98 52.46-94.13 32.67z" fill="#586372"/></g><path d="m333.52 124.61a38.56 38.56 0 0 1 -77.12 0 34.53 34.53 0 0 1 .19-3.69 38.55 38.55 0 0 0 76.75 0q.18 1.81.18 3.69z" fill="#303947"/><path d="m161.71 124.61a38.56 38.56 0 0 0 77.12 0q0-1.87-.18-3.69a38.55 38.55 0 0 1 -76.76 0q-.18 1.81-.18 3.69z" fill="#303947"/><ellipse cx="246.93" cy="171.16" fill="#ccd3db" rx="35.48" ry="24.85"/><ellipse cx="246.93" cy="167.72" fill="#425066" rx="18.73" ry="13.28"/><path d="m265.66 167.72a9.42 9.42 0 0 1 -.28 2.31c-1.55-6.24-9.22-11-18.45-11s-16.9 4.73-18.44 11a9 9 0 0 1 -.29-2.31c0-7.33 8.39-13.29 18.73-13.29s18.73 5.96 18.73 13.29z" fill="#4a5a70"/><path d="m327.65 86.44s-38.13-9.44-40.65-13.24 7.23-14.93 15-12.79 28.42 15.1 28.34 20.72-2.69 5.31-2.69 5.31z" fill="#303947"/><path d="m329.32 85.5c0-.21 0-.44 0-.67.08-5.62-20.58-18.6-28.35-20.73-5.46-1.5-11.89 3.54-14.36 8-.51-4.49 8.27-13.65 15.38-11.7 7.76 2.13 28.42 15.12 28.34 20.73a7.52 7.52 0 0 1 -1.01 4.37z" fill="#3b4759"/><path d="m166.88 85.26s38.56-7.48 41.25-11.16-6.46-15.28-14.33-13.55-29.15 13.65-29.36 19.27 2.44 5.44 2.44 5.44z" fill="#303947"/><path d="m165.26 84.23c0-.21 0-.43 0-.67.2-5.62 21.5-17.53 29.36-19.26 5.53-1.22 11.69 4.14 13.94 8.71.74-4.45-7.56-14.01-14.76-12.46-7.86 1.74-29.15 13.66-29.36 19.26a7.51 7.51 0 0 0 .82 4.42z" fill="#3b4759"/><path d="m78.76 275.88c3.45-3.87 5.62-10.37 5.44-17.68s-2.69-13.69-6.33-17.38-10.66-13.69-28.34-7.82c-5.72 1.9-7.82 6.85-6.62 10.43.54 1.63 3.64 5 6 6.38-2.31 1.23-5.2 3.85-5.72 5.52-1.14 3.62.75 6.66 4.61 9.32a14.26 14.26 0 0 0 2.63 1.41l-1.26.88a13.78 13.78 0 0 0 -5 6.19c-1 3.63.78 7.09 5.8 9.56 15.92 7.88 28.79-6.81 28.79-6.81z" fill="#606b7d"/><path d="m48.88 249.85s11.8 3.5 20.52-.47c0 0-19.86 1.3-26.8-7.49 0 0-1.03 3.79 6.28 7.96z" fill="#8792ae" opacity=".47" mix-blend-mode="multiply"/><path d="m50.31 266.07s11.8 3.51 20.52-.47c0 0-21 1.45-27.94-7.33 0 0 .35 5.01 7.42 7.8z" fill="#8792ae" opacity=".47" mix-blend-mode="multiply"/><path d="m427.2 248.05c-2.65 4.46-3.54 11.25-2 18.39s5.26 12.92 9.54 15.84 13.09 11.39 29.32 2.21c5.25-3 6.36-8.23 4.5-11.51-.85-1.5-4.55-4.25-7.09-5.12 2-1.65 4.36-4.77 4.55-6.51.43-3.77-2-6.39-6.3-8.26a13.61 13.61 0 0 0 -2.86-.88l1.14-1.11a13.82 13.82 0 0 0 3.68-7c.3-3.76-2.13-6.81-7.52-8.27-17.16-4.67-26.96 12.22-26.96 12.22z" fill="#606b7d"/><path d="m461.52 267.86s-12.25-1.17-20 4.4c0 0 19.24-5.08 27.74 2.21-.05 0 .23-3.92-7.74-6.61z" fill="#8792ae" opacity=".47" mix-blend-mode="multiply"/><path d="m457 252.21s-12.25-1.21-20 4.41c0 0 20.34-5.46 28.83 1.84-.05 0-1.35-4.86-8.83-6.25z" fill="#8792ae" opacity=".47" mix-blend-mode="multiply"/><path d="m233.77 205.53s45.09 11.79 54.46-15.05c0 0-1.76 38.25-54.46 15.05z" fill="#822244"/></g><circle cx="104.87" cy="199.66" fill="#37d320" r="29.1" transform="matrix(.923 -.385 .385 .923 -68.85 55.84)"/><path d="m116.51 176.31a26.1 26.1 0 0 1 -32.91 38.29 26.12 26.12 0 1 0 32.91-38.29z" fill="#37d320" opacity=".5" mix-blend-mode="multiply"/><circle cx="97.74" cy="186.07" fill="#fff" opacity=".3" r="10.65"/><path d="m90.62 202.09a5.15 5.15 0 1 1 -5.15-5.15 5.15 5.15 0 0 1 5.15 5.15z" fill="#fff" opacity=".3"/><circle cx="291.45" cy="275.5" fill="#37d320" r="18.77" transform="matrix(.924 -.383 .383 .924 -83.24 132.5)"/><path d="m299 260.43a16.84 16.84 0 0 1 -21.23 24.7 16.85 16.85 0 1 0 21.23-24.7z" fill="#37d320" opacity=".5" mix-blend-mode="multiply"/><path d="m293.71 266.73a6.87 6.87 0 1 1 -6.87-6.87 6.87 6.87 0 0 1 6.87 6.87z" fill="#fff" opacity=".3"/><path d="m282.25 277.06a3.32 3.32 0 1 1 -3.32-3.32 3.32 3.32 0 0 1 3.32 3.32z" fill="#fff" opacity=".3"/></g></g></g></svg>