<svg height="512" viewBox="0 0 512 512" width="512" xmlns="http://www.w3.org/2000/svg"><g isolation="isolate"><g id="Layer_1" data-name="Layer 1"><path d="m315.22 159.12s.66-25.41-13.87-33.54c0 0 26.72 10.41 40 36.52z" fill="#bac3ce"/><path d="m289.24 156s-2.84-29.13-30.72-37c0 0 48.27 3.26 59.14 39.2z" fill="#bac3ce"/><path d="m290.35 155.76s-3.06-18.82-29.71-9.67c0 0 11.23 1.82 12.16 11.11z" fill="#bac3ce"/><path d="m260.64 146.09s18.51-2 17.12 20l-4.28-1.4s1.81-13.69-12.84-18.6z" fill="#acb6c1"/><path d="m258.52 119s37.31 8.29 29.64 31.57c0 .01-6.07-21.17-29.64-31.57z" fill="#acb6c1"/><path d="m301.35 125.58s20.48 9.4 13.33 25.21c0 0-2.15-16.37-13.33-25.21z" fill="#acb6c1"/><path d="m488.32 302.64c-29.23 35.71-79.32 61.86-133.47 59.62-.23-6.9-.47-13.73-.79-20.58-.18-3.85-.39-7.7-.64-11.58 42.63-2.5 83.05-24.31 107.67-53.11 2.05-2.4 7.17-3 12.26-1.42a19.25 19.25 0 0 1 8.58 5.28c.07.08.43.38.51.44 6.63 5.91 9.13 17.38 5.88 21.35z" fill="#bac2cc"/><path d="m473.35 275.57a28.49 28.49 0 0 1 -4 6.81c-24.37 32.34-71 56.74-115.29 59.3-.18-3.85-.39-7.7-.64-11.58 42.63-2.5 83.05-24.31 107.67-53.11 2.05-2.4 7.17-2.99 12.26-1.42z" fill="#c5ccd3"/><path d="m114.43 312.4c31.59 33.65 83.3 56.34 137.21 50.43-.24-6.89-.47-13.73-.61-20.58-.09-3.85-.14-7.71-.15-11.6-42.7.4-84.5-18.63-111-45.69-2.21-2.25-7.36-2.48-12.33-.58a19.22 19.22 0 0 0 -8.2 5.85c-.07.09-.41.4-.49.48-6.23 6.34-7.94 17.96-4.43 21.69z" fill="#adb4be"/><path d="m127.53 284.38a28.77 28.77 0 0 0 4.45 6.53c26.51 30.6 74.71 51.78 119.05 51.34-.09-3.85-.14-7.71-.15-11.6-42.7.4-84.5-18.63-111-45.69-2.23-2.25-7.38-2.48-12.35-.58z" fill="#bac2cc"/><path d="m378.1 435.85c0-11.4-11.81-114-22.8-129.44a83.59 83.59 0 0 0 -5.91-7.37c-11.47-12.76-26.32-21.15-42.76-22.94a59.47 59.47 0 0 0 -6.69-.38c-18.85 0-36 8.62-49 22.78-1.8 2-3.52 4.05-5.16 6.22-11.74 15.65-24 119.73-24 131.13a66.52 66.52 0 0 0 7.51 30.68h141.3a66.52 66.52 0 0 0 7.51-30.68z" fill="#adb4be"/><path d="m299.93 466.53h70.66a66.52 66.52 0 0 0 7.51-30.68c0-11.4-11.81-114-22.8-129.44a83.59 83.59 0 0 0 -5.91-7.37c-11.47-12.76-26.32-21.15-42.76-22.94a59.47 59.47 0 0 0 -6.69-.38" fill="#bac2cc"/><path d="m357.53 449.86 5.54 5.71c.35-5.17-4.82-21.42-4.82-21.42l4.82 4.64c.17-5.44-9.51-26.79-9.81-27.25l6.23 3.21c-1.78-4.64-14.27-26.21-14.27-26.21h5.39c-3.52-6.07-16.81-17.33-16.81-17.33h5.73c-.59-2.17-4.62-5.4-8.61-8.17-4.27-3-8.51-5.37-8.51-5.37l4.82-.94c-.87-9.28-11.43-16.73-11.43-16.73l7.75 2.93c.18-3.69-6.49-13.45-6.49-13.45l6.61 5.53c.88-5.72-4.47-14.27-4.47-14.27l6.24 3.73c0-4.12-6.88-11.27-6.88-11.27h5.22c-1.09-5-15.69-14.87-15.69-14.87l8 1.65-11.57-7.9-1.85-1.26-.07-.06h-5.3l-.08.07-13.4 9.17 8-1.65s-14.59 9.91-15.69 14.87h5.22s-6.87 7.15-6.87 11.27l6.24-3.73s-5.35 8.55-4.46 14.27l6.58-5.51c-.36.5-6.37 8.74-6.2 12.3l9.95-2.2s-12.89 8.09-13.9 17.13l4.82.94s-2.51 1.37-5.51 3.31c-4.73 3.05-10.91 7.46-11.66 10.19h5.74s-13.3 11.26-16.82 17.33h5.39s-12.48 21.57-14.27 26.21l6.23-3.21c-.3.46-10 21.81-9.8 27.25l4.82-4.64s-5.18 16.25-4.82 21.42l5.53-5.71a87.16 87.16 0 0 0 -.77 16.67h116.73a87.16 87.16 0 0 0 -.77-16.65z" fill="#f1f2f0"/><path d="m241.55 466.53a87.16 87.16 0 0 1 .77-16.67l-5.53 5.71c-.36-5.17 4.82-21.42 4.82-21.42l-4.82 4.64c-.18-5.44 9.5-26.78 9.8-27.25l-6.23 3.21c1.79-4.64 14.27-26.21 14.27-26.21h-5.39c3.52-6.07 16.82-17.33 16.82-17.33h-5.74c.75-2.73 6.93-7.14 11.66-10.19 3.06-2 5.51-3.37 5.51-3.37l-4.82-.94c1-9 13.9-17.13 13.9-17.13l-9.95 2.2c-.17-3.56 5.84-11.8 6.2-12.3l-6.58 5.52c-.89-5.72 4.46-14.27 4.46-14.27l-6.24 3.73c0-4.12 6.87-11.27 6.87-11.27h-5.22c1.1-5 15.69-14.87 15.69-14.87l-8 1.65 13.4-9.15c.9-.05 1.81-.07 2.72-.07s1.78 0 2.68.06 1.77.09 2.65.17c-.27.35-.54.71-.8 1.09-7.92 11-15.36 29.43-9.28 56.78v.19a51.09 51.09 0 0 1 -5 36.16c-1.4 2.51-2.83 14.4-4.2 17.47-6.23 14-11.35 39.86-8.53 63.87" fill="#8792ae" opacity=".15" mix-blend-mode="multiply"/><ellipse cx="297.58" cy="319.63" opacity=".11" rx="85.28" ry="29.39"/><path d="m347.14 173.74s26.64-64.7 84.77-48.21c0 0 17.68 63.88-25.31 93.61-15.22 10.53-59.46-45.4-59.46-45.4z" fill="#bac3ce"/><path d="m418.49 141.41s-23.37 2.68-32.95 32.63c-5.43 16.96-11.54 23.49-11.54 23.49s31.14 7.24 30.06 0-10.5-7.61-5.07-12.67 20.92-23.34 10.86-25c-13.63-2.21 8.64-18.45 8.64-18.45z" fill="#8792ae" opacity=".47" mix-blend-mode="multiply"/><path d="m251.4 173.74s-26.63-64.7-84.76-48.21c0 0-17.68 63.88 25.31 93.61 15.22 10.53 59.45-45.4 59.45-45.4z" fill="#adb4be"/><path d="m180.48 142s23.37 2.68 33 32.63c5.43 17 11.59 23.49 11.59 23.49s-31.14 7.24-30.05 0 10.5-7.6 5.06-12.67-20.92-23.33-10.86-25c13.53-2.17-8.74-18.45-8.74-18.45z" fill="#8792ae" opacity=".47" mix-blend-mode="multiply"/><path d="m450.26 260.14c-8.09-.63-15.39-4.54-21.78-10a61.8 61.8 0 0 0 .38-6.82c0-1.22 0-2.44-.1-3.65-1.09-18.89-10.62-36.28-26-50.38-23.49-21.45-60.62-35.29-102.42-35.29-58.08 0-107.17 26.81-123.08 63.61a65.64 65.64 0 0 0 -5.17 20c-.16 1.9-.26 3.84-.26 5.78 0 1.53.07 3.06.18 4.58 0 .52.08 1.05.14 1.58-5.94 7.06-20.92 10.29-22.42 10.6h-.13s8.55 16.31 25 20.84l-16.37-.25c.52.59 16.76 18.7 35.29 21.09.39.05.77.1 1.17.13 0 0-19.14.63-23.52-.15 17 10 37.3 35.89 94.7 27.85l-.17-.18c11 2.13 23.67 9.24 35.64 9.24 11.62 0 21.83-7.05 32.53-9.06a150 150 0 0 0 20.72 1.53c41.94 0 59.19-20.73 74-29.38-4.38.78-23.52.15-23.52.15.4 0 .77-.08 1.16-.13 18.53-2.39 34.77-20.5 35.29-21.09l-16.37.25c16.56-4.54 25.11-20.85 25.11-20.85z" fill="#bac2cc"/><path d="m313.14 329.66c-57.4 8-77.68-17.89-94.69-27.85 4.38.78 23.51.15 23.51.15-.39 0-.78-.08-1.16-.13-18.53-2.39-34.77-20.5-35.28-21.09l16.36.25c-16.48-4.53-25-20.84-25-20.84h.13c1.5-.31 16.48-3.54 22.42-10.6-.05-.53-.1-1.06-.14-1.58-.11-1.52-.17-3.05-.17-4.58 0-1.94.09-3.88.26-5.78a65.35 65.35 0 0 1 5.17-20 475.77 475.77 0 0 1 30.16-57.8s-61.71 14.39-77.45 57.76c-2.38 6.55-4.53 13.09-5.17 20-.16 1.9-.26 3.84-.26 5.78 0 1.53.07 3.06.18 4.58 0 .52.08 1.05.14 1.58-5.94 7.06-20.92 10.29-22.42 10.6h-.13s8.55 16.31 25 20.84l-16.37-.25c.52.59 16.76 18.7 35.29 21.09.39.05.77.1 1.17.13 0 0-19.14.63-23.52-.15 17 10 37.3 35.89 94.7 27.85l-.17-.18c11 2.13 23.67 9.24 35.64 9.24 8 0 15.3-3.33 22.57-6.06a81.91 81.91 0 0 0 -11-3.18z" fill="#adb4be"/><path d="m357.84 180.34c-22.46-13.89-45.66 10.29-45.66 10.29s-4.87-14.63-13.35-14.63-13.49 14.59-13.49 14.59-23.2-24.18-45.66-10.29-38.28 52.1-66.58 60.21l.16.07c.67 2.35 19.46 65 90.51 40.77 12.34-4.2 30.1 3 35 3h.13c4.89 0 22.66-7.19 35-3 72.4 24.66 90.54-40.84 90.54-40.84-28.32-8.11-44.14-46.28-66.6-60.17z" fill="#606b7d"/><g opacity=".61"><path d="m333.88 271.93c-12.33-4.2-30.1 3-35 3h-.13c-4.89 0-22.65-7.19-35-3-56 19.07-89.53-31.75-90.67-31.42l.16.07c.67 2.35 19.46 65 90.51 40.77 12.34-4.2 30.1 3 35 3h.13c4.89 0 22.66-7.19 35-3 72.4 24.66 90.54-40.84 90.54-40.84-1.1-.32-34.6 50.49-90.54 31.42z" fill="#586372"/></g><path d="m306.76 233.13a37.05 37.05 0 1 1 37.06 37 37.06 37.06 0 0 1 -37.06-37z" fill="#fff"/><path d="m380.86 233.09a37.09 37.09 0 0 1 -74.17 0 34.6 34.6 0 0 1 .17-3.55 37.08 37.08 0 0 0 73.83 0 34.6 34.6 0 0 1 .17 3.55z" fill="#f2f2f2"/><path d="m321.52 219.1a10 10 0 1 1 -1.11 14.06 10 10 0 0 1 1.11-14.06z" fill="#425066"/><path d="m333.84 226a4.88 4.88 0 1 1 -.54 6.88 4.88 4.88 0 0 1 .54-6.88z" fill="#fff"/><path d="m289.71 233.13a37.05 37.05 0 1 0 -37.06 37 37.06 37.06 0 0 0 37.06-37z" fill="#fff"/><path d="m215.61 233.09a37.09 37.09 0 0 0 74.17 0 34.6 34.6 0 0 0 -.17-3.55 37.08 37.08 0 0 1 -73.83 0 34.6 34.6 0 0 0 -.17 3.55z" fill="#f2f2f2"/><path d="m232.27 217.71a10 10 0 1 1 -1.55 14 10 10 0 0 1 1.55-14z" fill="#425066"/><path d="m244.37 225a4.88 4.88 0 1 1 -.76 6.86 4.89 4.89 0 0 1 .76-6.86z" fill="#fff"/><path d="m330 282s0 28-16.23 39.62c-.57.42-1.17.81-1.79 1.18a27.54 27.54 0 0 1 -14.56 3.74c-7 0-12.53-3.18-16.91-7.8a49.89 49.89 0 0 1 -9.32-15.15 95.9 95.9 0 0 1 -5.99-21.59z" fill="#822244"/><path d="m311.94 322.79a27.54 27.54 0 0 1 -14.56 3.74c-7 0-12.53-3.18-16.91-7.8a49.89 49.89 0 0 1 -9.32-15.15 48.26 48.26 0 0 1 21.91 4.42 47.28 47.28 0 0 1 18.88 14.79z" fill="#dd3c7e"/><path d="m331.71 277.87a19.07 19.07 0 0 1 -5.53 13c-6.09 6.54-16.62 10.86-28.6 10.86-11.82 0-22.25-4.21-28.37-10.62a19.17 19.17 0 0 1 -5.76-13.28c0-13.2 15.28-23.91 34.13-23.91s34.13 10.75 34.13 23.95z" fill="#ccd3db"/><ellipse cx="297.58" cy="274.56" fill="#425066" rx="18.02" ry="12.77"/><path d="m315.6 274.55a8.74 8.74 0 0 1 -.28 2.23c-1.49-6-8.86-10.56-17.74-10.56s-16.26 4.55-17.74 10.56a8.74 8.74 0 0 1 -.28-2.23c0-7 8.07-12.77 18-12.77s18.04 5.73 18.04 12.77z" fill="#4a5a70"/><path d="m375.22 196.38s-36.68-9.06-39.08-12.73 6.95-14.36 14.42-12.31 27.34 14.53 27.26 19.93-2.6 5.11-2.6 5.11z" fill="#303947"/><path d="m376.82 195.47c0-.2 0-.42 0-.64.08-5.41-19.8-17.89-27.27-19.94-5.25-1.44-11.43 3.41-13.81 7.69-.49-4.31 8-13.12 14.79-11.25 7.47 2 27.34 14.54 27.26 19.94a7.07 7.07 0 0 1 -.97 4.2z" fill="#3b4759"/><path d="m220.58 195.24s37.09-7.19 39.68-10.74-6.22-14.69-13.78-13-28 13.13-28.24 18.53 2.34 5.21 2.34 5.21z" fill="#303947"/><path d="m219 194.25c0-.2 0-.42 0-.64.19-5.4 20.68-16.86 28.24-18.53 5.32-1.17 11.25 4 13.41 8.38.7-4.28-7.28-13.51-14.2-12-7.57 1.67-28 13.13-28.24 18.52a7.21 7.21 0 0 0 .79 4.27z" fill="#3b4759"/><path d="m117.33 316.58c4.9.9 11.33-.57 17.24-4.39s9.89-9.06 11.09-13.9 5.89-15.61-7.82-27.18c-4.43-3.73-9.54-3-11.88-.2-1.07 1.26-2.31 5.52-2.25 8.1-2.16-1.28-5.76-2.34-7.39-1.93-3.54.88-5.09 3.95-5.34 8.45a12.93 12.93 0 0 0 .16 2.87l-1.36-.59a13.25 13.25 0 0 0 -7.57-1c-3.49 1-5.43 4.19-5 9.55 1.61 17.02 20.12 20.22 20.12 20.22z" fill="#606b7d"/><path d="m123.72 279s3 11.44 10.68 16.61c0 0-11-15.66-7.29-25.75 0 .01-3.63 1.06-3.39 9.14z" fill="#8792ae" opacity=".47" mix-blend-mode="multiply"/><path d="m111.12 288.32s3 11.44 10.68 16.61c0 0-11.72-16.52-8-26.62.02 0-3.93 2.8-2.68 10.01z" fill="#8792ae" opacity=".47" mix-blend-mode="multiply"/><path d="m504.81 296.88c2.13-4.93 1.3-8.59-1.71-10.62a13.26 13.26 0 0 0 -7.49-1.44l-1.47.14a12.65 12.65 0 0 0 1-2.68c1.17-4.35.66-7.75-2.43-9.7-1.42-.89-5.17-1-7.62-.47.86-2.43 1-6.86.39-8.4-1.35-3.37-6-5.68-11.35-3.52-16.63 6.7-15.92 23.37-15.92 23.37-.37 5 1.77 11.2 6.19 16.68s10.06 8.87 15 9.55 18.6 2.73 25.41-12.91z" fill="#606b7d"/><path d="m485.14 272.09s-6.47 9.92-15.34 12.44c0 0 15.37-11.43 15-22.18-.03 0 3.09 2.13.34 9.74z" fill="#8792ae" opacity=".47" mix-blend-mode="multiply"/><path d="m494.19 284.87s-6.46 9.92-15.33 12.44c0 0 16.3-12 15.9-22.79 0 0 2.87 3.89-.57 10.35z" fill="#8792ae" opacity=".47" mix-blend-mode="multiply"/><path d="m326.18 290.91c-.75 3.84-2.14 8.28-4.61 9.52-4.61 2.3-35.83 9.42-47.77-1.68a16 16 0 0 1 -4.59-7.6c6.12 6.41 16.55 10.62 28.37 10.62 11.98 0 22.51-4.32 28.6-10.86z" fill="#fff"/><path d="m106.43 158.53a37.85 37.85 0 0 1 5.93-20 45.91 45.91 0 0 0 5.64-38.53 46.43 46.43 0 0 0 -60-30.52c-22.58 7.81-35.48 32.73-29.28 55.8a46.08 46.08 0 0 0 26.28 30.39 36.07 36.07 0 0 1 16.31 13.33l35.12-10.51z" fill="#feb95c"/><path d="m106.45 157.69v.84l-35.14 10.47a36.07 36.07 0 0 0 -16.31-13.33 46.08 46.08 0 0 1 -26.29-30.39c-6.21-23.07 6.69-48 29.28-55.8a46 46 0 0 1 7-1.9 47 47 0 0 0 -22.26 52.67 46 46 0 0 0 26.27 30.38 36.09 36.09 0 0 1 16.33 13.37z" fill="#feb95c" opacity=".44" mix-blend-mode="multiply"/><path d="m87.59 196.46a11.22 11.22 0 0 0 20-6z" fill="#143441"/><path d="m109.59 190.23-23.51 7a6 6 0 0 1 -7.54-4.07l-7.32-24.48 35.11-10.51 7.33 24.48a6 6 0 0 1 -4.07 7.58z" fill="#143441"/><path d="m109.67 170.55-34.79 10.45a3.72 3.72 0 0 1 -4.6-2.48 3.74 3.74 0 0 1 2.48-4.61l34.79-10.41a3.72 3.72 0 0 1 4.6 2.48 3.73 3.73 0 0 1 -2.48 4.57z" fill="#415a6b"/><path d="m113.05 181.82-34.8 10.42a3.73 3.73 0 0 1 -4.6-2.49 3.73 3.73 0 0 1 2.48-4.6l34.79-10.41a3.73 3.73 0 0 1 4.61 2.48 3.73 3.73 0 0 1 -2.48 4.6z" fill="#415a6b"/><g fill="#feb95c"><path d="m53.32 45.61a3.37 3.37 0 0 0 -2.26 4.19l3.28 11a3.38 3.38 0 0 0 4.19 2.2 3.18 3.18 0 0 0 2.25-4.19l-3.27-11a3.37 3.37 0 0 0 -4.19-2.2z"/><path d="m16 78.18a3.33 3.33 0 0 0 -3.12 5.82l10 5.42a3.33 3.33 0 1 0 3.16-5.86z"/><path d="m19.36 125.63-11 3.27a3.37 3.37 0 0 0 -2.25 4.19 3.37 3.37 0 0 0 4.18 2.26l11-3.28a3.37 3.37 0 0 0 2.26-4.19 3.6 3.6 0 0 0 -4.19-2.25z"/><path d="m44.13 160.33-5.41 10a3.33 3.33 0 0 0 5.86 3.16l5.41-10a3.33 3.33 0 1 0 -5.86-3.16z"/><path d="m124 136.42a3.33 3.33 0 1 0 -3.16 5.86l10 5.41a3.33 3.33 0 0 0 3.16-5.86z"/><path d="m136.61 90.53-11 3.28a3.37 3.37 0 0 0 -2.21 4.19 3.38 3.38 0 0 0 4.19 2.26l10.95-3.26a3.37 3.37 0 0 0 2.26-4.19 3.37 3.37 0 0 0 -4.19-2.28z"/><path d="m102.37 52.34-5.37 10.05a3.33 3.33 0 1 0 5.86 3.16l5.42-10a3.33 3.33 0 0 0 -5.86-3.16z"/></g></g></g></svg>